<svg xmlns="http://www.w3.org/2000/svg" version="1.0" width="327.000000pt" height="396.000000pt" viewBox="0 0 327.000000 396.000000" preserveAspectRatio="xMidYMid meet">

<g transform="translate(0.000000,396.000000) scale(0.100000,-0.100000)" fill="#ffffff" stroke="none">
<path d="M1480 3673 c-159 -26 -314 -139 -404 -293 -21 -35 -238 -617 -544 -1459 l-509 -1401 217 0 c198 0 218 2 225 18 4 9 225 606 491 1327 267 720 493 1318 502 1329 26 29 76 46 133 46 65 0 117 -24 135 -64 8 -17 208 -521 444 -1121 l428 -1090 -641 -5 -642 -5 -3 -217 -2 -218 935 0 c514 0 935 2 935 5 0 17 -1057 2812 -1086 2872 -66 136 -196 235 -351 268 -63 14 -205 18 -263 8z" fill="#ffffff"/>
<path d="M1547 3118 c-18 -17 -145 -347 -497 -1298 -260 -701 -475 -1281 -477 -1287 -4 -10 43 -13 213 -13 l219 0 150 381 150 382 5 -109 5 -109 554 -3 c441 -2 552 0 549 10 -3 7 -177 465 -388 1018 -382 1006 -401 1050 -445 1050 -8 0 -25 -10 -38 -22z m142 -1375 c50 -127 91 -234 91 -237 0 -3 -88 -6 -195 -6 -107 0 -195 3 -195 7 0 4 43 117 96 251 64 161 99 240 105 230 4 -7 48 -118 98 -245z" fill="#ffffff"/>
</g>
</svg>